<svg xmlns="http://www.w3.org/2000/svg" xmlns:xlink="http://www.w3.org/1999/xlink" version="1.1" x="0px" y="0px" viewBox="0 0 259.1 193.625" style="enable-background:new 0 0 259.1 154.9;" xml:space="preserve"><metadata><?xpacket begin="&#65279;" id="W5M0MpCehiHzreSzNTczkc9d"?><x:xmpmeta xmlns:x="adobe:ns:meta/" x:xmptk="Adobe XMP Core 5.6-c067 79.157747, 2015/03/30-23:40:42        "/><?xpacket end="w"?></metadata><style type="text/css">
	.st0{fill:none;stroke:#000000;stroke-miterlimit:10;}
</style><path d="M13.3,143.9c-2.7,0-5-2.2-5-5s2.2-5,5-5c2.7,0,5,2.2,5,5S16,143.9,13.3,143.9z M13.3,135.4c-1.9,0-3.5,1.6-3.5,3.5  s1.6,3.5,3.5,3.5c1.9,0,3.5-1.6,3.5-3.5S15.2,135.4,13.3,135.4z"/><rect x="12.5" y="138.9" width="1.5" height="9.2"/><path d="M129.5,143.9c-2.7,0-5-2.2-5-5s2.2-5,5-5c2.7,0,5,2.2,5,5S132.3,143.9,129.5,143.9z M129.5,135.4c-1.9,0-3.5,1.6-3.5,3.5  s1.6,3.5,3.5,3.5c1.9,0,3.5-1.6,3.5-3.5S131.4,135.4,129.5,135.4z"/><rect x="128.8" y="138.9" width="1.5" height="9.2"/><path d="M231.6,143.9c-2.7,0-5-2.2-5-5s2.2-5,5-5c2.7,0,5,2.2,5,5S234.3,143.9,231.6,143.9z M231.6,135.4c-1.9,0-3.5,1.6-3.5,3.5  s1.6,3.5,3.5,3.5c1.9,0,3.5-1.6,3.5-3.5S233.5,135.4,231.6,135.4z"/><rect x="230.8" y="138.9" width="1.5" height="9.2"/><path d="M243,143.9c-2.7,0-5-2.2-5-5s2.2-5,5-5c2.7,0,5,2.2,5,5S245.7,143.9,243,143.9z M243,135.4c-1.9,0-3.5,1.6-3.5,3.5  s1.6,3.5,3.5,3.5c1.9,0,3.5-1.6,3.5-3.5S244.9,135.4,243,135.4z"/><rect x="242.2" y="138.9" width="1.5" height="9.2"/><polygon points="22,145.3 20.5,145.3 20.5,141.8 22.7,141.8 22.7,143.4 22,143.4 "/><polygon points="123.5,145.6 122,145.6 124.2,18.7 124.2,18.6 129.6,3.4 135.2,18.7 137.4,145.4 135.9,145.4 133.7,19 129.6,7.9   125.7,19 "/><rect x="127.5" y="17.2" width="1.5" height="0.7"/><rect x="129.6" y="17.2" width="1.5" height="0.7"/><path d="M187.7,95.1h-1.5c0-5.5-4.5-10.1-10.1-10.1S166,89.6,166,95.1h-1.5c0-6.4,5.2-11.6,11.6-11.6S187.7,88.7,187.7,95.1z"/><rect x="173.3" y="78.8" width="1.5" height="2.5"/><rect x="177.2" y="78.8" width="1.5" height="2.5"/><path d="M173.4,78.9c0-0.7,0.3-1.4,0.7-1.9c0.5-0.5,1.2-0.8,1.9-0.8c0.7,0,1.4,0.3,1.9,0.7c0.5,0.5,0.8,1.2,0.8,1.9l-1.5,0  c0-0.6-0.5-1.1-1.2-1.1c-0.3,0-0.6,0.1-0.8,0.4c-0.2,0.2-0.3,0.5-0.3,0.8L173.4,78.9z"/><polygon points="188.7,97.7 187.2,97.7 187.2,96.2 165.1,96.2 165.1,97.4 163.6,97.4 163.6,94.7 188.7,94.7 "/><polygon points="163.5,99.4 162.7,99.4 162.7,97.2 189.6,97.2 189.6,99.2 188.8,99.2 188.8,98 163.5,98 "/><rect x="162.2" y="98.6" width="28" height="1.5"/><rect x="162.2" y="99.4" width="1.5" height="6.6"/><rect x="188.6" y="99.4" width="1.5" height="6.6"/><rect x="172.1" y="101.6" width="1.5" height="2.8"/><rect x="169.9" y="101.6" width="1.5" height="2.8"/><rect x="167.7" y="101.6" width="1.5" height="2.8"/><rect x="165.5" y="101.6" width="1.5" height="2.8"/><rect x="174.3" y="101.6" width="1.5" height="2.8"/><rect x="176.5" y="101.6" width="1.5" height="2.8"/><rect x="178.7" y="101.6" width="1.5" height="2.8"/><rect x="180.9" y="101.6" width="1.5" height="2.8"/><rect x="183.1" y="101.6" width="1.5" height="2.8"/><rect x="185.3" y="101.6" width="1.5" height="2.8"/><rect x="175.7" y="92.1" width="0.8" height="1.3"/><rect x="173.9" y="92.1" width="0.8" height="1.3"/><rect x="172.1" y="92.1" width="0.8" height="1.3"/><rect x="139.4" y="128.6" width="1.5" height="1.3"/><rect x="143.6" y="128.6" width="1.5" height="1.3"/><rect x="147.8" y="128.6" width="1.5" height="1.3"/><rect x="139.4" y="132.3" width="1.5" height="2.9"/><rect x="143.6" y="132.3" width="1.5" height="2.9"/><rect x="147.8" y="132.3" width="1.5" height="2.9"/><rect x="170.3" y="92.1" width="0.8" height="1.3"/><rect x="168.6" y="92.1" width="0.8" height="1.3"/><rect x="166.8" y="92.1" width="0.8" height="1.3"/><rect x="177.5" y="92.1" width="0.8" height="1.3"/><rect x="179.3" y="92.1" width="0.8" height="1.3"/><rect x="181.1" y="92.1" width="0.8" height="1.3"/><rect x="182.8" y="92.1" width="0.8" height="1.3"/><rect x="184.6" y="92.1" width="0.8" height="1.3"/><polygon points="192.5,119 191,119 191,107 161,107 161,118.8 159.5,118.8 159.5,105.5 192.5,105.5 "/><rect x="159.2" y="107.5" width="33.7" height="0.8"/><rect x="173" y="109.2" width="1.5" height="6.2"/><rect x="170.8" y="109.2" width="1.5" height="6.2"/><rect x="168.6" y="109.2" width="1.5" height="6.2"/><rect x="166.4" y="109.2" width="1.5" height="6.2"/><rect x="164.2" y="109.2" width="1.5" height="6.2"/><rect x="162" y="109.2" width="1.5" height="6.2"/><rect x="175.2" y="109.2" width="1.5" height="6.2"/><rect x="177.4" y="109.2" width="1.5" height="6.2"/><rect x="179.6" y="109.2" width="1.5" height="6.2"/><rect x="181.8" y="109.2" width="1.5" height="6.2"/><rect x="184" y="109.2" width="1.5" height="6.2"/><rect x="186.2" y="109.2" width="1.5" height="6.2"/><rect x="188.4" y="109.2" width="1.5" height="6.2"/><rect x="160.2" y="115.8" width="31.3" height="1.5"/><rect x="192.3" y="119.2" width="1.5" height="2.6"/><rect x="158.3" y="119.2" width="1.5" height="2.6"/><rect x="157.6" y="118.5" width="36.9" height="1.5"/><polygon points="179.6,84.7 178,84.7 178,82 174,82 174,84.7 172.5,84.7 172.5,80.5 179.6,80.5 "/><rect x="174.4" y="78.3" width="3.7" height="0.8"/><rect x="175.4" y="68.8" width="1.5" height="8.3"/><polygon points="224.2,145.7 222.7,145.7 222.7,122.8 136.7,122.8 136.7,121.3 224.2,121.3 "/><rect x="136.7" y="124.4" width="86.9" height="1.5"/><rect x="152" y="122.3" width="1.5" height="23.3"/><rect x="198.2" y="121.7" width="1.5" height="23.9"/><polygon points="111,111.1 109.5,111.1 109.5,101.7 36.9,101.7 36.9,111.1 35.4,111.1 35.4,100.2 111,100.2 "/><path d="M120.7,114.1H25.7v-3.9h94.9V114.1z M27.3,112.6h91.9v-0.8H27.3V112.6z"/><polygon points="119.3,118.4 27,118.4 27,113 28.5,113 28.5,116.9 117.8,116.9 117.8,113 119.3,113 "/><rect x="36.2" y="102.5" width="74.2" height="0.8"/><rect x="36.2" y="105.9" width="74.2" height="1.5"/><rect x="28" y="115.3" width="90.7" height="0.8"/><polygon points="33,120.8 27.5,120.8 27.5,118.4 29,118.4 29,119.3 31.4,119.3 31.4,118.3 33,118.3 "/><rect x="28.1" y="120.5" width="1.5" height="17.8"/><rect x="30.9" y="120.5" width="1.5" height="17.8"/><polygon points="40.2,120.8 34.7,120.8 34.7,118.4 36.2,118.4 36.2,119.3 38.6,119.3 38.6,118.3 40.2,118.3 "/><rect x="35.2" y="120.5" width="1.5" height="17.8"/><rect x="38.1" y="120.5" width="1.5" height="17.8"/><polygon points="47.3,120.8 41.9,120.8 41.9,118.4 43.4,118.4 43.4,119.3 45.8,119.3 45.8,118.3 47.3,118.3 "/><rect x="42.4" y="120.5" width="1.5" height="17.8"/><rect x="45.3" y="120.5" width="1.5" height="17.8"/><polygon points="54.5,120.8 49.1,120.8 49.1,118.4 50.6,118.4 50.6,119.3 53,119.3 53,118.3 54.5,118.3 "/><rect x="49.6" y="120.5" width="1.5" height="17.8"/><rect x="52.4" y="120.5" width="1.5" height="17.8"/><polygon points="61.7,120.8 56.3,120.8 56.3,118.4 57.8,118.4 57.8,119.3 60.2,119.3 60.2,118.3 61.7,118.3 "/><rect x="56.8" y="120.5" width="1.5" height="17.8"/><rect x="59.6" y="120.5" width="1.5" height="17.8"/><polygon points="68.9,120.8 63.4,120.8 63.4,118.4 65,118.4 65,119.3 67.4,119.3 67.4,118.3 68.9,118.3 "/><rect x="64" y="120.5" width="1.5" height="17.8"/><rect x="66.8" y="120.5" width="1.5" height="17.8"/><polygon points="76.1,120.8 70.6,120.8 70.6,118.4 72.1,118.4 72.1,119.3 74.5,119.3 74.5,118.3 76.1,118.3 "/><rect x="71.2" y="120.5" width="1.5" height="17.8"/><rect x="74" y="120.5" width="1.5" height="17.8"/><polygon points="83.2,120.8 77.8,120.8 77.8,118.4 79.3,118.4 79.3,119.3 81.7,119.3 81.7,118.3 83.2,118.3 "/><rect x="78.3" y="120.5" width="1.5" height="17.8"/><rect x="81.2" y="120.5" width="1.5" height="17.8"/><polygon points="90.4,120.8 85,120.8 85,118.4 86.5,118.4 86.5,119.3 88.9,119.3 88.9,118.3 90.4,118.3 "/><rect x="85.5" y="120.5" width="1.5" height="17.8"/><rect x="88.4" y="120.5" width="1.5" height="17.8"/><polygon points="97.6,120.8 92.2,120.8 92.2,118.4 93.7,118.4 93.7,119.3 96.1,119.3 96.1,118.3 97.6,118.3 "/><rect x="92.7" y="120.5" width="1.5" height="17.8"/><rect x="95.5" y="120.5" width="1.5" height="17.8"/><polygon points="104.8,120.8 99.3,120.8 99.3,118.4 100.9,118.4 100.9,119.3 103.3,119.3 103.3,118.3 104.8,118.3 "/><rect x="99.9" y="120.5" width="1.5" height="17.8"/><rect x="102.7" y="120.5" width="1.5" height="17.8"/><polygon points="112,120.8 106.5,120.8 106.5,118.4 108.1,118.4 108.1,119.3 110.5,119.3 110.5,118.3 112,118.3 "/><rect x="107.1" y="120.5" width="1.5" height="17.8"/><rect x="109.9" y="120.5" width="1.5" height="17.8"/><polygon points="118.7,120.8 113.2,120.8 113.2,118.4 114.8,118.4 114.8,119.3 117.2,119.3 117.2,118.3 118.7,118.3 "/><rect x="113.8" y="120.5" width="1.5" height="17.8"/><rect x="116.6" y="120.5" width="1.5" height="17.8"/><path class="st0" d="M122.5,140.6"/><polygon points="24.9,141.4 23.4,141.4 23.4,137.8 122.5,137.8 122.5,139.4 24.9,139.4 "/><polygon points="23.5,143.4 22,143.4 22,139.9 24.1,139.9 24.1,141.4 23.5,141.4 "/><rect x="20.7" y="142.7" width="101.4" height="0.8"/><rect x="139.2" y="138.8" transform="matrix(1 5.589377e-03 -5.589377e-03 1 0.7868 -0.782)" width="2.1" height="3.2"/><rect x="143.4" y="138.8" transform="matrix(1 5.589377e-03 -5.589377e-03 1 0.7869 -0.8052)" width="2.1" height="3.2"/><rect x="147.5" y="138.8" transform="matrix(1 5.589377e-03 -5.589377e-03 1 0.7869 -0.8279)" width="2.1" height="3.2"/><rect x="202.4" y="128.6" width="1.5" height="1.3"/><rect x="206.6" y="128.6" width="1.5" height="1.3"/><rect x="210.7" y="128.6" width="1.5" height="1.3"/><rect x="202.4" y="132.3" width="1.5" height="2.9"/><rect x="206.6" y="132.3" width="1.5" height="2.9"/><rect x="210.7" y="132.3" width="1.5" height="2.9"/><rect x="202.2" y="138.8" transform="matrix(1 5.589377e-03 -5.589377e-03 1 0.7878 -1.1339)" width="2.1" height="3.2"/><rect x="206.4" y="138.8" transform="matrix(1 5.589377e-03 -5.589377e-03 1 0.7879 -1.1572)" width="2.1" height="3.2"/><rect x="210.4" y="138.8" transform="matrix(1 5.589377e-03 -5.589377e-03 1 0.7879 -1.1798)" width="2.1" height="3.2"/><rect x="214.9" y="128.6" width="1.5" height="1.3"/><rect x="214.9" y="132.3" width="1.5" height="2.9"/><rect x="214.6" y="138.8" transform="matrix(1 5.589377e-03 -5.589377e-03 1 0.788 -1.2031)" width="2.1" height="3.2"/><rect x="219.1" y="128.6" width="1.5" height="1.3"/><rect x="219.1" y="132.3" width="1.5" height="2.9"/><rect x="218.7" y="138.8" transform="matrix(1 5.589377e-03 -5.589377e-03 1 0.788 -1.2264)" width="2.1" height="3.2"/><rect x="156.3" y="128.6" width="1.5" height="1.3"/><rect x="156.3" y="132.3" width="1.5" height="2.9"/><rect x="156.1" y="138.8" transform="matrix(1 5.589377e-03 -5.589377e-03 1 0.7871 -0.8761)" width="2.1" height="3.2"/><rect x="175" y="138.8" transform="matrix(1 5.589377e-03 -5.589377e-03 1 0.7874 -0.9817)" width="2.1" height="3.2"/><rect x="179.1" y="138.8" transform="matrix(1 5.589377e-03 -5.589377e-03 1 0.7874 -1.005)" width="2.1" height="3.2"/><rect x="184.5" y="138.8" transform="matrix(1 5.589377e-03 -5.589377e-03 1 0.7875 -1.0349)" width="2.1" height="3.2"/><rect x="170.8" y="138.8" transform="matrix(1 5.589377e-03 -5.589377e-03 1 0.7873 -0.9584)" width="2.1" height="3.2"/><rect x="165.1" y="138.8" transform="matrix(1 5.589377e-03 -5.589377e-03 1 0.7872 -0.9263)" width="2.1" height="3.2"/><rect x="193.8" y="128.6" width="1.5" height="1.3"/><rect x="193.8" y="132.3" width="1.5" height="2.9"/><rect x="193.4" y="138.8" transform="matrix(1 5.589377e-03 -5.589377e-03 1 0.7876 -1.085)" width="2.1" height="3.2"/><polygon points="162.3,127 159.4,127 159.4,125.7 160.1,125.7 160.1,126.2 161.5,126.2 161.5,125.7 162.3,125.7 "/><rect x="159.7" y="126.6" width="0.8" height="10.4"/><rect x="161.2" y="126.6" width="0.8" height="10.4"/><polygon points="165.6,127 162.7,127 162.7,125.7 163.5,125.7 163.5,126.2 164.8,126.2 164.8,125.7 165.6,125.7 "/><rect x="163" y="126.6" width="0.8" height="10.4"/><rect x="164.5" y="126.6" width="0.8" height="10.4"/><polygon points="171.2,127 168.3,127 168.3,125.7 169,125.7 169,126.2 170.4,126.2 170.4,125.7 171.2,125.7 "/><rect x="168.6" y="126.6" width="0.8" height="10.4"/><rect x="170.1" y="126.6" width="0.8" height="10.4"/><polygon points="174.5,127 171.6,127 171.6,125.7 172.4,125.7 172.4,126.2 173.8,126.2 173.8,125.7 174.5,125.7 "/><rect x="171.9" y="126.6" width="0.8" height="10.4"/><rect x="173.5" y="126.6" width="0.8" height="10.4"/><polygon points="180.1,127 177.2,127 177.2,125.7 178,125.7 178,126.2 179.4,126.2 179.4,125.7 180.1,125.7 "/><rect x="177.5" y="126.6" width="0.8" height="10.4"/><rect x="179.1" y="126.6" width="0.8" height="10.4"/><polygon points="183.5,127 180.5,127 180.5,125.7 181.3,125.7 181.3,126.2 182.7,126.2 182.7,125.7 183.5,125.7 "/><rect x="180.8" y="126.6" width="0.8" height="10.4"/><rect x="182.4" y="126.6" width="0.8" height="10.4"/><polygon points="189,127 186.1,127 186.1,125.7 186.9,125.7 186.9,126.2 188.3,126.2 188.3,125.7 189,125.7 "/><rect x="186.4" y="126.6" width="0.8" height="10.4"/><rect x="188" y="126.6" width="0.8" height="10.4"/><polygon points="192.4,127 189.5,127 189.5,125.7 190.2,125.7 190.2,126.2 191.6,126.2 191.6,125.7 192.4,125.7 "/><rect x="189.8" y="126.6" width="0.8" height="10.4"/><rect x="191.3" y="126.6" width="0.8" height="10.4"/><rect x="136.8" y="136.2" width="87.3" height="1.5"/><rect x="160.7" y="137.2" width="1.5" height="7.8"/><rect x="189.3" y="137.2" width="1.5" height="7.8"/><polygon points="148.5,121.9 147,121.9 147,119.6 141.5,119.6 141.5,121.9 140,121.9 140,118.1 148.5,118.1 "/><polygon points="212.1,121.9 210.5,121.9 210.5,119.6 205.1,119.6 205.1,121.9 203.5,121.9 203.5,118.1 212.1,118.1 "/><rect x="23" y="140.7" width="99.5" height="0.8"/><rect x="6.3" y="145" width="245.6" height="1.3"/><text x="0" y="169.9" fill="#000000" font-size="5px" font-weight="bold" font-family="'Helvetica Neue', Helvetica, Arial-Unicode, Arial, Sans-serif">Created by Laura Lin</text><text x="0" y="174.9" fill="#000000" font-size="5px" font-weight="bold" font-family="'Helvetica Neue', Helvetica, Arial-Unicode, Arial, Sans-serif">from the Noun Project</text></svg>